# xmcd CD database file
#
# Track frame offsets:
#	150
#	13818
#	36468
#	50118
#	60471
#	96137
#	102855
#	116041
#	149427
#	167972
#	200637
#	224860
#
# Disc length: 3389 seconds
#
# Revision: 1
# Processed by: cddbd v1.4PL0 Copyright (c) Steve Scherf et al.
# Submitted via: CDex 1.50beta8
#
DISCID=c10d3b0c
DTITLE=Mike Adcock and Clive Bell - Sleep It Off
DYEAR=2000
DGENRE=Jazz
TTITLE0=We Open Early
TTITLE1=Infanta
TTITLE2=Marooned in Red
TTITLE3=Near the Airport
TTITLE4=Real Lakes
TTITLE5=Shuffle and Deal
TTITLE6=Rural Roulette
TTITLE7=Sketches for a Frenzied Whirling
TTITLE8=Holy Appetite
TTITLE9=Azure for Beginners
TTITLE10=Lullaby for Young Owls
TTITLE11=No More Cancan
EXTD=YEAR: 2000
EXTT0=
EXTT1=
EXTT2=
EXTT3=
EXTT4=
EXTT5=
EXTT6=
EXTT7=
EXTT8=
EXTT9=
EXTT10=
EXTT11=
PLAYORDER=
